<svg version="1.1" xmlns="http://www.w3.org/2000/svg" viewBox="0 0 1303.6746031746036 601.8456659619451" width="1303.6746031746036" height="601.8456659619451">
  <!-- svg-source:excalidraw -->
  
  <defs>
    <style>
      @font-face {
        font-family: "Virgil";
        src: url("https://excalidraw.com/Virgil.woff2");
      }
      @font-face {
        font-family: "Cascadia";
        src: url("https://excalidraw.com/Cascadia.woff2");
      }
    </style>
  </defs>
  <rect x="0" y="0" width="1303.6746031746036" height="601.8456659619451" fill="#ffffff"></rect><g stroke-linecap="round" transform="translate(10 421) rotate(0 160.3373015873018 85.42283298097254)"><path d="M1.19 1.19 C111.79 1.08, 222.26 -0.18, 321.78 -1.3 M0.52 -0.13 C113.61 -0.8, 226.18 -0.18, 320.49 -0.38 M321.63 0.4 C323.4 36.38, 320.37 73.73, 321.78 172.58 M321.05 0.19 C318.22 66.49, 319.55 133.2, 321.16 170.45 M320.28 171.15 C239.92 169.99, 162.57 170.06, 0.43 170.7 M321.19 170.63 C207.06 172.38, 93.89 172.83, 0.51 171.5 M-1.49 169.66 C-1.22 104.84, 0.68 40.32, 1.47 1.9 M0.71 171.28 C0.95 114.39, 0.61 59.38, -0.6 -0.46" stroke="#000000" stroke-width="1" fill="none"></path></g><g transform="translate(22.203261854425477 435.23713883016285) rotate(0 97.4506345643054 17.595253462999608)"><text x="0" y="24.190506925999166" font-family="Virgil, Segoe UI Emoji" font-size="27.06962071230704px" fill="#000000" text-anchor="start" style="white-space: pre;" direction="ltr">TextureBinding</text></g><g stroke-linecap="round" transform="translate(257 87) rotate(0 160.3373015873018 85.42283298097254)"><path d="M1.18 0.5 C84.16 0.81, 169.38 0.77, 321.74 -0.22 M0.15 -0.45 C96.34 0.36, 193.66 0.38, 321.21 -0.54 M321.3 1.36 C322.08 37.65, 318.86 75.06, 320.7 171.63 M321.32 0.12 C319.77 61.34, 320.69 121.11, 320.68 171.24 M319.34 169.9 C233.43 170.06, 148.17 172, -0.64 172 M321.21 171.49 C233.19 173.39, 146.84 172.67, -0.08 170.43 M0.58 171.72 C-2.74 120.94, -2.26 72.26, 1.43 1.28 M-0.45 170.11 C-1.71 110.74, -1.17 50.24, 0.53 0.92" stroke="#000000" stroke-width="1" fill="none"></path></g><g transform="translate(269.2032618544255 101.23713883016285) rotate(0 105.5 35)"><text x="0" y="24" font-family="Virgil, Segoe UI Emoji" font-size="27.06962071230704px" fill="#000000" text-anchor="start" style="white-space: pre;" direction="ltr">VariantObserver</text><text x="0" y="59" font-family="Virgil, Segoe UI Emoji" font-size="27.06962071230704px" fill="#000000" text-anchor="start" style="white-space: pre;" direction="ltr">&lt;Texture&gt;</text></g><g stroke-linecap="round" transform="translate(492 421) rotate(0 160.3373015873018 85.42283298097254)"><path d="M1.1 -0.12 C126.47 2.56, 249.18 1.82, 321.78 -0.32 M-0.41 0.12 C77.47 -1.82, 154.39 -1.96, 321.24 -0.13 M320.08 -1.54 C319.08 58.34, 318.76 117.51, 322.18 169.49 M321.38 0.31 C320.89 34.77, 322.36 70.12, 319.81 170.47 M321.33 171.47 C245.98 169.8, 169.32 170.59, 0.9 170.03 M321.34 170.92 C201.71 168.36, 81.67 168.75, 0.08 171.37 M-1.79 169.78 C-1.69 108.96, -1.34 49.14, -1.5 -1.71 M0.29 171.01 C-0.69 102.88, -0.44 35.96, -0.16 -0.36" stroke="#000000" stroke-width="1" fill="none"></path></g><g transform="translate(504.2032618544255 435.23713883016285) rotate(0 98.49999999999994 17.5)"><text x="0" y="24" font-family="Virgil, Segoe UI Emoji" font-size="27.06962071230704px" fill="#000000" text-anchor="start" style="white-space: pre;" direction="ltr">MaterialBinding</text></g><g stroke-linecap="round" transform="translate(973 421) rotate(0 160.3373015873018 85.42283298097254)"><path d="M0.27 0.09 C115.59 -2.47, 230.05 -2.31, 319.84 0.88 M-0.45 -0.23 C82.42 -1.21, 166.18 -1.72, 320.73 0.31 M320.6 1.08 C319.34 68.57, 319.67 131.99, 320.54 171.47 M319.82 0.44 C319.5 41.22, 318.4 83.5, 320.8 170.41 M319.55 171.47 C248.16 170.45, 173.42 170.11, -0.05 169.54 M320.21 170.45 C231.56 171.63, 143.45 171.32, 0.02 170.56 M1.6 170.08 C-2.16 121.04, -1.57 70.82, 1.9 1.26 M-0.48 171.53 C1.55 113.11, 0.61 56.48, -0.91 0.17" stroke="#000000" stroke-width="1" fill="none"></path></g><g transform="translate(985.2032618544254 435.23713883016285) rotate(0 97 17.5)"><text x="0" y="24" font-family="Virgil, Segoe UI Emoji" font-size="27.06962071230704px" fill="#000000" text-anchor="start" style="white-space: pre;" direction="ltr">PrimitiveBinding</text></g><g stroke-linecap="round"><g transform="translate(184.96747099983418 399.1652187552303) rotate(0 98.34687444544596 -64.88815987799316)"><path d="M0.09 1.01 C33.19 -20.81, 165.07 -108.98, 198.01 -130.78 M-1.32 0.49 C31.68 -21.18, 164.05 -107.5, 197.07 -129.57" stroke="#000000" stroke-width="1" fill="none"></path></g><g transform="translate(184.96747099983418 399.1652187552303) rotate(0 98.34687444544596 -64.88815987799316)"><path d="M180.85 -105.47 C182.62 -111.98, 188.75 -116.11, 195.67 -131.21 M179.38 -106.12 C182.98 -112.31, 187.74 -118.59, 197.29 -129.72" stroke="#000000" stroke-width="1" fill="none"></path></g><g transform="translate(184.96747099983418 399.1652187552303) rotate(0 98.34687444544596 -64.88815987799316)"><path d="M169.56 -122.61 C174.17 -124.83, 183.13 -124.67, 195.67 -131.21 M168.09 -123.26 C174.5 -125.01, 182.16 -126.89, 197.29 -129.72" stroke="#000000" stroke-width="1" fill="none"></path></g></g><g stroke-linecap="round"><g transform="translate(449.183110493575 275.1632037362271) rotate(0 93.00259282071448 66.46879807057786)"><path d="M1.01 0.01 C31.58 22.09, 152.96 110.29, 183.54 132.57 M0.07 -1.03 C31.04 21.22, 155.28 111.82, 185.93 133.97" stroke="#000000" stroke-width="1" fill="none"></path></g><g transform="translate(449.183110493575 275.1632037362271) rotate(0 93.00259282071448 66.46879807057786)"><path d="M157.11 124.68 C165.53 128.62, 176.3 129.15, 184.29 133.11 M156.45 124.79 C163.59 126.95, 170.69 129.99, 185.78 134.08" stroke="#000000" stroke-width="1" fill="none"></path></g><g transform="translate(449.183110493575 275.1632037362271) rotate(0 93.00259282071448 66.46879807057786)"><path d="M169.17 108.07 C173.89 117.23, 180.95 122.86, 184.29 133.11 M168.51 108.18 C172.59 114.51, 176.69 121.7, 185.78 134.08" stroke="#000000" stroke-width="1" fill="none"></path></g></g><g stroke-linecap="round" transform="translate(740 87) rotate(0 160.3373015873018 85.42283298097254)"><path d="M-0.08 -0.4 C69.52 -2.8, 139.76 -3.21, 321.45 -1.25 M-0.37 0.26 C126.13 -0.86, 252.38 -0.56, 320.64 -0.1 M319.14 -0.21 C321.14 35.93, 320.14 72.35, 319.18 172.65 M321.15 0.49 C319.06 51.37, 319.38 103.91, 320.09 171.01 M320.7 169.61 C203.46 168.18, 84.29 169.48, -0.14 169.74 M320.65 170.91 C192.64 172.13, 66.36 172.28, 0.44 170.7 M0.07 171.74 C1.7 107.08, -0.5 40.35, 1.62 0.62 M-0.76 171.39 C0.22 126.08, -0.58 81.38, 0.85 0.64" stroke="#000000" stroke-width="1" fill="none"></path></g><g transform="translate(752.2032618544254 101.23713883016285) rotate(0 105.5 35)"><text x="0" y="24" font-family="Virgil, Segoe UI Emoji" font-size="27.06962071230704px" fill="#000000" text-anchor="start" style="white-space: pre;" direction="ltr">VariantObserver</text><text x="0" y="59" font-family="Virgil, Segoe UI Emoji" font-size="27.06962071230704px" fill="#000000" text-anchor="start" style="white-space: pre;" direction="ltr">&lt;Material&gt;</text></g><g stroke-linecap="round"><g transform="translate(667.9677954675917 399.1652187552303) rotate(0 98.34540926465172 -63.98714229302479)"><path d="M0.93 -0.09 C33.88 -21.08, 164.39 -104.73, 196.74 -125.9 M-0.05 -1.18 C32.9 -22.55, 163.31 -107.03, 196.22 -127.89" stroke="#000000" stroke-width="1" fill="none"></path></g><g transform="translate(667.9677954675917 399.1652187552303) rotate(0 98.34540926465172 -63.98714229302479)"><path d="M177.89 -102.66 C182.47 -110.95, 184.41 -116.3, 197.69 -126.16 M178.11 -104.41 C184.76 -113.2, 190.96 -122.37, 195.79 -127.56" stroke="#000000" stroke-width="1" fill="none"></path></g><g transform="translate(667.9677954675917 399.1652187552303) rotate(0 98.34540926465172 -63.98714229302479)"><path d="M166.81 -119.93 C173.83 -124.51, 178.2 -126.06, 197.69 -126.16 M167.03 -121.68 C177.91 -124.01, 188.31 -126.64, 195.79 -127.56" stroke="#000000" stroke-width="1" fill="none"></path></g></g><g stroke-linecap="round"><g transform="translate(934.1469644422214 279.16320373622705) rotate(0 90.83801730545065 64.28116789313964)"><path d="M-0.65 0 C29.25 21.3, 149.8 106.93, 180.1 128.33 M1.21 -1.05 C31.42 20.37, 152.45 107.85, 182.32 129.61" stroke="#000000" stroke-width="1" fill="none"></path></g><g transform="translate(934.1469644422214 279.16320373622705) rotate(0 90.83801730545065 64.28116789313964)"><path d="M153.48 119.82 C163.05 124.69, 173.55 128.76, 181.28 130.04 M152.48 120.94 C160.46 123.29, 167.58 126.03, 183.3 128.91" stroke="#000000" stroke-width="1" fill="none"></path></g><g transform="translate(934.1469644422214 279.16320373622705) rotate(0 90.83801730545065 64.28116789313964)"><path d="M165.52 103.21 C170.83 113.99, 177 124.03, 181.28 130.04 M164.53 104.33 C169.82 110.35, 174.2 116.87, 183.3 128.91" stroke="#000000" stroke-width="1" fill="none"></path></g></g><g stroke-linecap="round" transform="translate(257 10) rotate(0 160.3373015873018 29.422832980972558)"><path d="M-0.18 1.01 C103.93 0.25, 205.67 0.33, 321.66 -0.2 M0.61 0.48 C101.27 -0.95, 202.07 -2, 320.38 -0.24 M321.38 0.21 C320.25 21.66, 319.65 42.73, 322.58 58.59 M319.67 -0.29 C321.38 16.86, 320.23 32.18, 321.24 59.47 M320.94 59.22 C212.22 60.16, 101.24 61.11, 0.36 57.99 M320.1 58.64 C217.03 58, 112.81 58.76, -0.25 58.78 M-1.82 60.84 C2.01 37.62, -1.31 18.22, 0.78 1.19 M0.45 59.33 C0.29 39.19, -1.22 20.36, 0.05 0.47" stroke="#000000" stroke-width="1" fill="none"></path></g><g transform="translate(269.2032618544255 24.23713883016285) rotate(0 38.5 17.5)"><text x="0" y="24" font-family="Virgil, Segoe UI Emoji" font-size="27.06962071230704px" fill="#000000" text-anchor="start" style="white-space: pre;" direction="ltr">Cache</text></g><g stroke-linecap="round" transform="translate(741 10) rotate(0 160.3373015873018 29.422832980972558)"><path d="M0.11 0.11 C84.62 1.12, 166.17 0.79, 321.11 1.02 M-0.35 -0.18 C73.94 0.52, 146.96 0.49, 320.14 -0.54 M321.67 1.2 C319.46 17.19, 319.19 37.65, 319.66 58.78 M321.56 0.04 C320.32 14.27, 320.52 29.56, 320.21 59.8 M320.48 58.41 C228.12 59.47, 134.3 61.62, 0.34 58.21 M321.26 58.36 C233.72 59.8, 147.88 59.36, 0.11 58.15 M1.54 57.34 C0.32 39.59, 0.37 17.31, -0.14 -1.23 M0.19 58.98 C-0.02 37.18, 1.17 15.43, 0.7 0.73" stroke="#000000" stroke-width="1" fill="none"></path></g><g transform="translate(753.2032618544254 24.23713883016285) rotate(0 38.5 17.5)"><text x="0" y="24" font-family="Virgil, Segoe UI Emoji" font-size="27.06962071230704px" fill="#000000" text-anchor="start" style="white-space: pre;" direction="ltr">Cache</text></g><g transform="translate(23 474) rotate(0 108.5 39)"><text x="0" y="18" font-family="Virgil, Segoe UI Emoji" font-size="20px" fill="#000000" text-anchor="start" style="white-space: pre;" direction="ltr">emits:</text><text x="0" y="44" font-family="Virgil, Segoe UI Emoji" font-size="20px" fill="#000000" text-anchor="start" style="white-space: pre;" direction="ltr"> • Texture</text><text x="0" y="70" font-family="Virgil, Segoe UI Emoji" font-size="20px" fill="#000000" text-anchor="start" style="white-space: pre;" direction="ltr"> • CompressedTexture</text></g><g transform="translate(508.5 471) rotate(0 123.5 52)"><text x="0" y="18" font-family="Virgil, Segoe UI Emoji" font-size="20px" fill="#000000" text-anchor="start" style="white-space: pre;" direction="ltr">emits:</text><text x="0" y="44" font-family="Virgil, Segoe UI Emoji" font-size="20px" fill="#000000" text-anchor="start" style="white-space: pre;" direction="ltr"> • MeshBasicMaterial</text><text x="0" y="70" font-family="Virgil, Segoe UI Emoji" font-size="20px" fill="#000000" text-anchor="start" style="white-space: pre;" direction="ltr"> • MeshStandardMaterial</text><text x="0" y="96" font-family="Virgil, Segoe UI Emoji" font-size="20px" fill="#000000" text-anchor="start" style="white-space: pre;" direction="ltr"> • MeshPhysicalMaterial</text></g><g transform="translate(985.5 470) rotate(0 105.5 52)"><text x="0" y="18" font-family="Virgil, Segoe UI Emoji" font-size="20px" fill="#000000" text-anchor="start" style="white-space: pre;" direction="ltr">emits:</text><text x="0" y="44" font-family="Virgil, Segoe UI Emoji" font-size="20px" fill="#000000" text-anchor="start" style="white-space: pre;" direction="ltr"> • Mesh</text><text x="0" y="70" font-family="Virgil, Segoe UI Emoji" font-size="20px" fill="#000000" text-anchor="start" style="white-space: pre;" direction="ltr"> • SkinnedMesh</text><text x="0" y="96" font-family="Virgil, Segoe UI Emoji" font-size="20px" fill="#000000" text-anchor="start" style="white-space: pre;" direction="ltr"> • Points / Lines / ...</text></g><g transform="translate(751.5 170) rotate(0 153.5 39)"><text x="0" y="18" font-family="Virgil, Segoe UI Emoji" font-size="20px" fill="#000000" text-anchor="start" style="white-space: pre;" direction="ltr">emits:</text><text x="0" y="44" font-family="Virgil, Segoe UI Emoji" font-size="20px" fill="#000000" text-anchor="start" style="white-space: pre;" direction="ltr"> • Mesh, Lines, PointsMaterial</text><text x="0" y="70" font-family="Virgil, Segoe UI Emoji" font-size="20px" fill="#000000" text-anchor="start" style="white-space: pre;" direction="ltr"> • .flatNormals, .vertexColors...</text></g><g transform="translate(268.5 171) rotate(0 136.5 39)"><text x="0" y="18" font-family="Virgil, Segoe UI Emoji" font-size="20px" fill="#000000" text-anchor="start" style="white-space: pre;" direction="ltr">emits:</text><text x="0" y="44" font-family="Virgil, Segoe UI Emoji" font-size="20px" fill="#000000" text-anchor="start" style="white-space: pre;" direction="ltr"> • .offset, .scale, .rotation,</text><text x="0" y="70" font-family="Virgil, Segoe UI Emoji" font-size="20px" fill="#000000" text-anchor="start" style="white-space: pre;" direction="ltr">   .encoding, ...</text></g></svg>